<svg width="22" height="20" viewBox="0 0 22 20" fill="none" xmlns="http://www.w3.org/2000/svg">
<path d="M17.9185 3.333H3.84506C2.87826 3.333 2.09511 4.083 2.09511 5L2.08667 15C2.08667 15.917 2.87826 16.667 3.84506 16.667H17.9185C18.8853 16.667 19.6769 15.917 19.6769 15V5C19.6769 4.083 18.8853 3.333 17.9185 3.333ZM17.566 6.875L11.3483 10.559C11.208 10.6408 11.0465 10.6842 10.8818 10.6842C10.717 10.6842 10.5555 10.6408 10.4153 10.559L4.19758 6.875C4.11061 6.82751 4.03464 6.7639 3.97419 6.68798C3.91374 6.61205 3.87005 6.52537 3.84574 6.4331C3.82143 6.34082 3.81698 6.24486 3.83268 6.15092C3.84837 6.05699 3.88387 5.96701 3.93707 5.88636C3.99027 5.80572 4.06008 5.73605 4.14232 5.68152C4.22456 5.627 4.31755 5.58873 4.41575 5.569C4.51394 5.54927 4.61533 5.54849 4.71385 5.5667C4.81237 5.58492 4.906 5.62175 4.98917 5.675L10.8818 9.167L16.7744 5.675C16.8575 5.62175 16.9512 5.58492 17.0497 5.5667C17.1482 5.54849 17.2496 5.54927 17.3478 5.569C17.446 5.58873 17.539 5.627 17.6212 5.68152C17.7035 5.73605 17.7733 5.80572 17.8265 5.88636C17.8797 5.96701 17.9152 6.05699 17.9309 6.15092C17.9466 6.24486 17.9421 6.34082 17.9178 6.4331C17.8935 6.52537 17.8498 6.61205 17.7894 6.68798C17.7289 6.7639 17.6529 6.82751 17.566 6.875Z" fill="url(#paint0_linear_5_748)"/>
<defs>
<linearGradient id="paint0_linear_5_748" x1="10.8818" y1="3.333" x2="10.8818" y2="16.667" gradientUnits="userSpaceOnUse">
<stop stop-color="#D2AFFF"/>
<stop offset="1" stop-color="#D2AFFF"/>
</linearGradient>
</defs>
</svg>
