<svg width="22" height="20" viewBox="0 0 22 20" fill="none" xmlns="http://www.w3.org/2000/svg">
<path d="M10.8817 1.667C7.18759 1.667 3.84497 4.35 3.84497 8.5C3.84497 11.15 6.00021 14.267 10.3012 17.858C10.4637 17.9909 10.6712 18.064 10.8859 18.064C11.1006 18.064 11.3081 17.9909 11.4706 17.858C15.7632 14.267 17.9184 11.15 17.9184 8.5C17.9184 4.35 14.5758 1.667 10.8817 1.667ZM10.8817 10C9.91383 10 9.12224 9.25 9.12224 8.333C9.12224 7.416 9.91383 6.666 10.8817 6.666C11.8495 6.666 12.6411 7.416 12.6411 8.333C12.6411 9.25 11.8495 10 10.8817 10Z" fill="url(#paint0_linear_5_746)"/>
<defs>
<linearGradient id="paint0_linear_5_746" x1="10.8817" y1="1.667" x2="10.8817" y2="18.064" gradientUnits="userSpaceOnUse">
<stop stop-color="#D2AFFF"/>
<stop offset="1" stop-color="#D2AFFF"/>
</linearGradient>
</defs>
</svg>
