<svg width="42" height="44" viewBox="0 0 15 17" fill="none" xmlns="http://www.w3.org/2000/svg">
<path d="M7.03671 0C3.34262 0 0 2.683 0 6.833C0 9.483 2.15524 12.6 6.45621 16.191C6.61874 16.3239 6.82626 16.397 7.04094 16.397C7.25561 16.397 7.46313 16.3239 7.62566 16.191C11.9182 12.6 14.0734 9.483 14.0734 6.833C14.0734 2.683 10.7308 0 7.03671 0V0ZM7.03671 8.333C6.06886 8.333 5.27727 7.583 5.27727 6.666C5.27727 5.749 6.06886 4.999 7.03671 4.999C8.00457 4.999 8.79616 5.749 8.79616 6.666C8.79616 7.583 8.00457 8.333 7.03671 8.333Z" fill="url(#paint0_linear_245_38)"/>
<defs>
<linearGradient id="paint0_linear_245_38" x1="7.03672" y1="0" x2="7.03672" y2="16.397" gradientUnits="userSpaceOnUse">
<stop stop-color="#009B41"/>
<stop offset="1" stop-color="#00B64D"/>
</linearGradient>
</defs>
</svg>
