<svg width="25" height="23" viewBox="0 0 25 23" fill="none" xmlns="http://www.w3.org/2000/svg">
<path d="M12.2043 1.87212C6.68477 1.87212 2.16846 6.08354 2.16846 11.2305C2.16846 16.3774 6.68477 20.5888 12.2043 20.5888C17.7238 20.5888 22.2401 16.3774 22.2401 11.2305C22.2401 6.08354 17.7238 1.87212 12.2043 1.87212ZM15.7668 14.7872L11.672 12.4377C11.5245 12.3556 11.4026 12.2391 11.3181 12.0997C11.2337 11.9603 11.1896 11.8028 11.1902 11.6426V7.25263C11.1955 7.06629 11.278 6.88909 11.4204 6.75822C11.5627 6.62735 11.7539 6.55299 11.9538 6.55073C12.1529 6.5522 12.3435 6.62662 12.4843 6.75794C12.6251 6.88925 12.7049 7.06693 12.7065 7.25263V11.4169L16.5604 13.5788C16.9217 13.7854 17.0422 14.2245 16.8206 14.5625C16.7116 14.7214 16.5401 14.834 16.343 14.876C16.1458 14.918 15.9389 14.8861 15.7668 14.7872Z" fill="url(#paint0_linear_5_777)"/>
<defs>
<linearGradient id="paint0_linear_5_777" x1="12.2043" y1="1.87212" x2="12.2043" y2="20.5888" gradientUnits="userSpaceOnUse">
<stop stop-color="#D2AFFF"/>
<stop offset="1" stop-color="#D2AFFF"/>
</linearGradient>
</defs>
</svg>
