<svg width="22" height="20" viewBox="0 0 22 20" fill="none" xmlns="http://www.w3.org/2000/svg">
<path d="M17.3517 12.717L15.1173 12.475C14.8547 12.4458 14.5886 12.4734 14.3389 12.5557C14.0892 12.638 13.8624 12.7728 13.6755 12.95L12.0565 14.483C9.56 13.2799 7.53081 11.3573 6.26097 8.992L7.88742 7.45C8.26633 7.092 8.45104 6.592 8.38877 6.083L8.1344 3.983C8.08441 3.57641 7.87837 3.20143 7.55549 2.92944C7.23261 2.65746 6.81544 2.50746 6.3834 2.508H4.86249C3.86825 2.508 3.04183 3.292 3.10305 4.233C3.56956 11.35 9.57615 17.033 17.0794 17.475C18.0726 17.533 18.9 16.75 18.9 15.808V14.367C18.9022 13.9594 18.7453 13.5655 18.4595 13.2609C18.1737 12.9564 17.7791 12.7626 17.3517 12.717Z" fill="url(#paint0_linear_5_750)"/>
<defs>
<linearGradient id="paint0_linear_5_750" x1="11" y1="2.508" x2="11" y2="17.478" gradientUnits="userSpaceOnUse">
<stop stop-color="#D2AFFF"/>
<stop offset="1" stop-color="#D2AFFF"/>
</linearGradient>
</defs>
</svg>
