<svg width="35" height="32" viewBox="0 0 35 32" fill="none" xmlns="http://www.w3.org/2000/svg">
<g clip-path="url(#clip0_5_754)">
<path d="M17.3253 0C12.7375 0 12.1648 0.02 10.3635 0.096C8.56499 0.176 7.34066 0.444 6.2641 0.84C5.15376 1.248 4.21089 1.796 3.27223 2.68533C2.33358 3.57467 1.75379 4.46667 1.32457 5.52C0.90661 6.54 0.622341 7.7 0.539312 9.404C0.454876 11.1107 0.437988 11.6533 0.437988 16C0.437988 20.3467 0.459097 20.8893 0.539312 22.596C0.623748 24.2987 0.90661 25.46 1.32457 26.48C1.7552 27.5307 2.33358 28.4253 3.27223 29.3147C4.21089 30.2027 5.15236 30.7533 6.2641 31.16C7.34206 31.5547 8.56639 31.8253 10.3635 31.904C12.1648 31.984 12.7375 32 17.3253 32C21.913 32 22.4857 31.98 24.287 31.904C26.0842 31.824 27.3099 31.5547 28.3864 31.16C29.4954 30.752 30.4396 30.2027 31.3783 29.3147C32.3156 28.4253 32.8967 27.5347 33.326 26.48C33.7425 25.46 34.0281 24.2987 34.1112 22.596C34.1956 20.8893 34.2125 20.3467 34.2125 16C34.2125 11.6533 34.1914 11.1107 34.1112 9.404C34.0268 7.70133 33.7425 6.53867 33.326 5.52C32.8953 4.468 32.3156 3.57467 31.3783 2.68533C30.4396 1.796 29.4996 1.24667 28.3864 0.84C27.3099 0.444 26.0842 0.174667 24.287 0.096C22.4857 0.016 21.913 0 17.3253 0ZM17.3253 2.88C21.8328 2.88 22.3703 2.90133 24.1506 2.97467C25.7971 3.048 26.6906 3.30667 27.2845 3.528C28.0754 3.81733 28.6355 4.164 29.2294 4.72267C29.819 5.28267 30.1849 5.81467 30.4903 6.564C30.7211 7.12667 30.9969 7.97333 31.0715 9.53333C31.1517 11.2213 31.17 11.728 31.17 16C31.17 20.272 31.1489 20.78 31.0659 22.4667C30.98 24.0267 30.7056 24.8733 30.4734 25.436C30.1582 26.1853 29.7994 26.716 29.2083 27.2787C28.6186 27.8373 28.0487 28.184 27.2663 28.4733C26.6752 28.692 25.7675 28.9533 24.121 29.024C22.3281 29.1 21.8004 29.1173 17.283 29.1173C12.7643 29.1173 12.2366 29.0973 10.4451 29.0187C8.79719 28.9373 7.8895 28.6773 7.29844 28.4573C6.4977 28.1587 5.94746 27.8187 5.35781 27.2587C4.76535 26.7 4.38679 26.16 4.09126 25.4187C3.85906 24.8587 3.58606 23.9987 3.50021 22.4387C3.43688 20.7587 3.41437 20.24 3.41437 15.98C3.41437 11.7187 3.43688 11.1987 3.50021 9.49867C3.58606 7.93867 3.85906 7.08 4.09126 6.52C4.38679 5.76 4.76535 5.24 5.35781 4.67867C5.94746 4.12 6.4977 3.76 7.29844 3.48133C7.8895 3.26 8.77748 3 10.424 2.92C12.2182 2.86 12.746 2.84 17.2619 2.84L17.3253 2.88ZM17.3253 7.784C12.5335 7.784 8.65365 11.464 8.65365 16C8.65365 20.54 12.5377 24.216 17.3253 24.216C22.117 24.216 25.9969 20.536 25.9969 16C25.9969 11.46 22.1128 7.784 17.3253 7.784ZM17.3253 21.3333C14.2152 21.3333 11.6962 18.9467 11.6962 16C11.6962 13.0533 14.2152 10.6667 17.3253 10.6667C20.4354 10.6667 22.9543 13.0533 22.9543 16C22.9543 18.9467 20.4354 21.3333 17.3253 21.3333ZM28.3667 7.46C28.3667 8.52 27.4576 9.38 26.3402 9.38C25.2214 9.38 24.3137 8.51867 24.3137 7.46C24.3137 6.40133 25.2229 5.54133 26.3402 5.54133C27.4563 5.54 28.3667 6.40133 28.3667 7.46Z" fill="url(#paint0_linear_5_754)"/>
</g>
<defs>
<linearGradient id="paint0_linear_5_754" x1="17.3253" y1="0" x2="17.3253" y2="32" gradientUnits="userSpaceOnUse">
<stop stop-color="#D2AFFF"/>
<stop offset="1" stop-color="#D2AFFF"/>
</linearGradient>
<clipPath id="clip0_5_754">
<rect width="33.7745" height="32" fill="white" transform="translate(0.437988)"/>
</clipPath>
</defs>
</svg>
