<svg width="48" height="48" viewBox="0 0 48 48" fill="none" xmlns="http://www.w3.org/2000/svg">
<path d="M35.5176 27.5815C35.4241 27.5366 31.9248 25.8135 31.303 25.5897C31.0491 25.4985 30.7771 25.4095 30.4879 25.4095C30.0154 25.4095 29.6184 25.645 29.3092 26.1075C28.9597 26.6271 27.9015 27.8641 27.5745 28.2336C27.5318 28.2823 27.4736 28.3406 27.4386 28.3406C27.4073 28.3406 26.8658 28.1176 26.7018 28.0464C22.948 26.4158 20.0987 22.4946 19.708 21.8333C19.6522 21.7383 19.6499 21.6951 19.6494 21.6951C19.6631 21.6448 19.7893 21.5182 19.8545 21.4529C20.0451 21.2644 20.2516 21.0158 20.4514 20.7753C20.546 20.6614 20.6407 20.5473 20.7338 20.4398C21.0236 20.1025 21.1527 19.8407 21.3023 19.5375L21.3807 19.3799C21.746 18.6541 21.434 18.0417 21.3331 17.8439C21.2504 17.6784 19.7728 14.1124 19.6157 13.7377C19.238 12.8337 18.7388 12.4127 18.0451 12.4127C17.9808 12.4127 18.0451 12.4127 17.7752 12.4241C17.4465 12.438 15.6567 12.6736 14.8653 13.1725C14.0261 13.7016 12.6063 15.3881 12.6063 18.3541C12.6063 21.0236 14.3004 23.5441 15.0277 24.5027C15.0458 24.5268 15.0789 24.5759 15.1271 24.6463C17.9125 28.7142 21.3849 31.7288 24.9049 33.135C28.2938 34.4887 29.8985 34.6451 30.8108 34.6451H30.811C31.1943 34.6451 31.5012 34.6151 31.7719 34.5884L31.9436 34.5721C33.1143 34.4683 35.687 33.1352 36.2722 31.5089C36.7332 30.2281 36.8548 28.8286 36.5481 28.3207C36.338 27.9753 35.976 27.8016 35.5176 27.5815Z" fill="#D2AFFF"/>
<path d="M24.4261 0C11.4262 0 0.849939 10.4967 0.849939 23.3989C0.849939 27.572 1.96672 31.6568 4.0823 35.2319L0.0330028 47.1766C-0.0424258 47.3993 0.0136781 47.6455 0.178406 47.8132C0.297315 47.9346 0.458614 48 0.623341 48C0.686458 48 0.750042 47.9905 0.812068 47.9707L13.2671 44.0129C16.6755 45.834 20.5276 46.7952 24.4262 46.7952C37.4249 46.7954 48 36.2997 48 23.3989C48 10.4967 37.4249 0 24.4261 0ZM24.4261 41.9212C20.7576 41.9212 17.2045 40.8619 14.1503 38.8577C14.0476 38.7903 13.9284 38.7557 13.8084 38.7557C13.745 38.7557 13.6814 38.7653 13.6195 38.785L7.38028 40.7682L9.39441 34.8261C9.45956 34.6337 9.42698 34.4216 9.30698 34.2577C6.98116 31.0797 5.75171 27.325 5.75171 23.3989C5.75171 13.1844 14.129 4.87419 24.4259 4.87419C34.7216 4.87419 43.0979 13.1844 43.0979 23.3989C43.0981 33.6122 34.7219 41.9212 24.4261 41.9212Z" fill="#D2AFFF"/>
</svg>
